<svg id="Capa_1" enable-background="new 0 0 512 512" height="512" viewBox="0 0 512 512" width="512" xmlns="http://www.w3.org/2000/svg"><g><path d="m95.388 328.309v-17.469c0-8.284-6.716-15-15-15s-15 6.716-15 15v17.469c0 8.284 6.716 15 15 15s15-6.716 15-15z"/><path d="m145.775 343.309c8.284 0 15-6.716 15-15v-17.469c0-8.284-6.716-15-15-15s-15 6.716-15 15v17.469c0 8.284 6.716 15 15 15z"/><path d="m211.163 343.309c8.284 0 15-6.716 15-15v-17.469c0-8.284-6.716-15-15-15s-15 6.716-15 15v17.469c0 8.284 6.716 15 15 15z"/><path d="m294.945 273.167c8.284 0 15-6.716 15-15v-50.163c0-8.284-6.716-15-15-15s-15 6.716-15 15v50.163c0 8.285 6.716 15 15 15z"/><path d="m481.051 324.181-7.1-79.894c7.535-.796 13.408-7.168 13.408-14.914 0-8.284-6.716-15-15-15h-1.066l-4.444-50h5.51c8.284 0 15-6.716 15-15s-6.716-15-15-15h-8.176l-6.896-77.604c-.688-7.739-7.172-13.672-14.941-13.672h-119.85c-7.528 0-13.891 5.58-14.872 13.044l-9.4 71.475h-42.041v-6.769c0-8.284-6.716-15-15-15s-15 6.716-15 15v17.059l-1.812.689c-5.821 2.213-9.669 7.793-9.669 14.021v60.268l-62.607-29.078c-4.644-2.157-10.069-1.795-14.388.96-4.317 2.755-6.931 7.523-6.931 12.645v10.876l-43.093-23.983c-4.653-2.589-10.33-2.519-14.915.187-4.586 2.705-7.395 7.639-7.38 12.963l.025 9.102-43.532-22.473c-4.65-2.401-10.216-2.204-14.685.518-4.468 2.723-7.196 7.578-7.196 12.811v256.491c0 8.284 6.716 15 15 15h482c8.284 0 15-6.716 15-15v-51.823c0-30.116-11.771-57.532-30.949-77.899zm-105.718-79.807h68.507l4.963 55.842c-15.232-7.587-32.39-11.863-50.53-11.863h-.001c-7.855 0-15.527.801-22.938 2.325v-46.304zm22.939 73.978c28.678 0 54.026 14.499 69.122 36.544h-138.244c15.096-22.045 40.444-36.544 69.122-36.544zm42.902-103.978h-65.841v-50h61.397zm-105.523-141.276h92.968l5.445 61.276h-79.478l-15.145-5.773c-1.706-.65-3.517-.984-5.343-.984h-5.617zm-305.651 148.938 43.603 22.509c4.656 2.403 10.23 2.203 14.702-.529 4.472-2.733 7.193-7.601 7.179-12.842l-.023-8.208 43.021 23.943c4.645 2.585 10.314 2.518 14.896-.176 4.584-2.695 7.398-7.614 7.398-12.931v-12.886l62.607 29.078c4.645 2.157 10.07 1.796 14.388-.96 4.317-2.755 6.931-7.523 6.931-12.645v-73.429l14.055-5.344h72.581l13.996 5.335v138.499c-36.115 19.077-60.789 57.023-60.789 100.629v36.822h-169.248v-21.034c0-8.284-6.716-15-15-15s-15 6.716-15 15v21.034h-55.297zm452 216.866h-107.456v-21.034c0-8.284-6.716-15-15-15s-15 6.716-15 15v21.034h-30v-36.822c0-5.889.618-11.635 1.781-17.184h163.895c1.162 5.549 1.781 11.295 1.781 17.184v36.822z"/></g></svg>